<svg width="26" height="25" viewBox="0 0 26 25" fill="none" xmlns="http://www.w3.org/2000/svg">
<g id="icon/file-edit">
<path id="Vector" d="M4.66663 14.0625V4.16667C4.66663 3.61413 4.88612 3.08423 5.27682 2.69353C5.66752 2.30283 6.19743 2.08333 6.74996 2.08333H15.6041L21.3333 7.8125V20.8333C21.3333 21.3859 21.1138 21.9158 20.7231 22.3065C20.3324 22.6972 19.8025 22.9167 19.25 22.9167H13.5208" stroke="black" stroke-width="2" stroke-linecap="round" stroke-linejoin="round"/>
<path id="Vector_2" d="M15.0834 2.08333V8.33333H21.3334" stroke="black" stroke-width="2" stroke-linecap="round" stroke-linejoin="round"/>
<path id="Vector_3" d="M11.3541 13.1354C11.5573 12.9323 11.7984 12.7711 12.0638 12.6612C12.3293 12.5513 12.6137 12.4947 12.901 12.4947C13.1883 12.4947 13.4728 12.5513 13.7382 12.6612C14.0036 12.7711 14.2447 12.9323 14.4479 13.1354C14.651 13.3386 14.8122 13.5797 14.9221 13.8451C15.032 14.1105 15.0886 14.395 15.0886 14.6823C15.0886 14.9696 15.032 15.254 14.9221 15.5195C14.8122 15.7849 14.651 16.026 14.4479 16.2292L8.78121 21.875L4.66663 22.9167L5.69788 18.8021L11.3541 13.1354Z" stroke="black" stroke-width="2" stroke-linecap="round" stroke-linejoin="round"/>
</g>
</svg>

