<svg width="25" height="25" viewBox="0 0 25 25" fill="none" xmlns="http://www.w3.org/2000/svg">
<path d="M22.9166 13.5417V6.25C22.9166 5.69747 22.6971 5.16756 22.3064 4.77686C21.9157 4.38616 21.3858 4.16667 20.8333 4.16667H4.16659C3.61405 4.16667 3.08415 4.38616 2.69345 4.77686C2.30275 5.16756 2.08325 5.69747 2.08325 6.25V18.75C2.08325 19.8958 3.02075 20.8333 4.16659 20.8333H12.4999" stroke="black" stroke-width="2" stroke-linecap="round" stroke-linejoin="round"/>
<path d="M22.9166 7.29167L13.5728 13.2292C13.2512 13.4307 12.8794 13.5375 12.4999 13.5375C12.1204 13.5375 11.7486 13.4307 11.427 13.2292L2.08325 7.29167" stroke="black" stroke-width="2" stroke-linecap="round" stroke-linejoin="round"/>
<path d="M19.7917 16.6667V22.9167" stroke="black" stroke-width="2" stroke-linecap="round" stroke-linejoin="round"/>
<path d="M16.6667 19.7917H22.9167" stroke="black" stroke-width="2" stroke-linecap="round" stroke-linejoin="round"/>
</svg>
