<svg width="26" height="25" viewBox="0 0 26 25" fill="none" xmlns="http://www.w3.org/2000/svg">
<path d="M17.1667 21.875V19.7917C17.1667 18.6866 16.7277 17.6268 15.9463 16.8454C15.1649 16.064 14.1051 15.625 13 15.625H6.75004C5.64497 15.625 4.58516 16.064 3.80376 16.8454C3.02236 17.6268 2.58337 18.6866 2.58337 19.7917V21.875" stroke="black" stroke-width="2" stroke-linecap="round" stroke-linejoin="round"/>
<path d="M9.87504 11.4583C12.1762 11.4583 14.0417 9.59285 14.0417 7.29167C14.0417 4.99048 12.1762 3.125 9.87504 3.125C7.57385 3.125 5.70837 4.99048 5.70837 7.29167C5.70837 9.59285 7.57385 11.4583 9.87504 11.4583Z" stroke="black" stroke-width="2" stroke-linecap="round" stroke-linejoin="round"/>
<path d="M23.4166 21.875V19.7917C23.4159 18.8685 23.1087 17.9716 22.543 17.242C21.9774 16.5123 21.1855 15.9912 20.2916 15.7604" stroke="black" stroke-width="2" stroke-linecap="round" stroke-linejoin="round"/>
<path d="M17.1666 3.26042C18.0629 3.4899 18.8573 4.01115 19.4246 4.74199C19.9919 5.47284 20.2998 6.3717 20.2998 7.29688C20.2998 8.22206 19.9919 9.12092 19.4246 9.85176C18.8573 10.5826 18.0629 11.1039 17.1666 11.3333" stroke="black" stroke-width="2" stroke-linecap="round" stroke-linejoin="round"/>
</svg>
