<svg width="26" height="26" viewBox="0 0 26 26" fill="none" xmlns="http://www.w3.org/2000/svg">
<g id="u:qrcode-scan">
<path id="Vector" d="M8.83333 22.3744H4.66666C4.3904 22.3744 4.12545 22.2646 3.93009 22.0693C3.73474 21.8739 3.625 21.609 3.625 21.3327V17.166C3.625 16.8897 3.51525 16.6248 3.3199 16.4294C3.12455 16.2341 2.8596 16.1243 2.58333 16.1243C2.30706 16.1243 2.04211 16.2341 1.84676 16.4294C1.65141 16.6248 1.54166 16.8897 1.54166 17.166V21.3327C1.54166 22.1615 1.8709 22.9563 2.45696 23.5424C3.04301 24.1284 3.83786 24.4577 4.66666 24.4577H8.83333C9.1096 24.4577 9.37455 24.3479 9.5699 24.1526C9.76525 23.9572 9.875 23.6923 9.875 23.416C9.875 23.1397 9.76525 22.8748 9.5699 22.6794C9.37455 22.4841 9.1096 22.3744 8.83333 22.3744ZM23.4167 16.1243C23.1404 16.1243 22.8754 16.2341 22.6801 16.4294C22.4847 16.6248 22.375 16.8897 22.375 17.166V21.3327C22.375 21.609 22.2653 21.8739 22.0699 22.0693C21.8746 22.2646 21.6096 22.3744 21.3333 22.3744H17.1667C16.8904 22.3744 16.6254 22.4841 16.4301 22.6794C16.2347 22.8748 16.125 23.1397 16.125 23.416C16.125 23.6923 16.2347 23.9572 16.4301 24.1526C16.6254 24.3479 16.8904 24.4577 17.1667 24.4577H21.3333C22.1621 24.4577 22.957 24.1284 23.543 23.5424C24.1291 22.9563 24.4583 22.1615 24.4583 21.3327V17.166C24.4583 16.8897 24.3486 16.6248 24.1532 16.4294C23.9579 16.2341 23.6929 16.1243 23.4167 16.1243ZM21.3333 1.54102H17.1667C16.8904 1.54102 16.6254 1.65076 16.4301 1.84611C16.2347 2.04146 16.125 2.30642 16.125 2.58268C16.125 2.85895 16.2347 3.1239 16.4301 3.31925C16.6254 3.5146 16.8904 3.62435 17.1667 3.62435H21.3333C21.6096 3.62435 21.8746 3.7341 22.0699 3.92945C22.2653 4.1248 22.375 4.38975 22.375 4.66602V8.83268C22.375 9.10895 22.4847 9.3739 22.6801 9.56925C22.8754 9.7646 23.1404 9.87435 23.4167 9.87435C23.6929 9.87435 23.9579 9.7646 24.1532 9.56925C24.3486 9.3739 24.4583 9.10895 24.4583 8.83268V4.66602C24.4583 3.83721 24.1291 3.04236 23.543 2.45631C22.957 1.87026 22.1621 1.54102 21.3333 1.54102ZM2.58333 9.87435C2.8596 9.87435 3.12455 9.7646 3.3199 9.56925C3.51525 9.3739 3.625 9.10895 3.625 8.83268V4.66602C3.625 4.38975 3.73474 4.1248 3.93009 3.92945C4.12545 3.7341 4.3904 3.62435 4.66666 3.62435H8.83333C9.1096 3.62435 9.37455 3.5146 9.5699 3.31925C9.76525 3.1239 9.875 2.85895 9.875 2.58268C9.875 2.30642 9.76525 2.04146 9.5699 1.84611C9.37455 1.65076 9.1096 1.54102 8.83333 1.54102H4.66666C3.83786 1.54102 3.04301 1.87026 2.45696 2.45631C1.8709 3.04236 1.54166 3.83721 1.54166 4.66602V8.83268C1.54166 9.10895 1.65141 9.3739 1.84676 9.56925C2.04211 9.7646 2.30706 9.87435 2.58333 9.87435ZM10.9167 5.70768H6.75C6.47373 5.70768 6.20878 5.81743 6.01343 6.01278C5.81808 6.20813 5.70833 6.47308 5.70833 6.74935V10.916C5.70833 11.1923 5.81808 11.4572 6.01343 11.6526C6.20878 11.8479 6.47373 11.9577 6.75 11.9577H10.9167C11.1929 11.9577 11.4579 11.8479 11.6532 11.6526C11.8486 11.4572 11.9583 11.1923 11.9583 10.916V6.74935C11.9583 6.47308 11.8486 6.20813 11.6532 6.01278C11.4579 5.81743 11.1929 5.70768 10.9167 5.70768ZM9.875 9.87435H7.79166V7.79102H9.875V9.87435ZM15.0833 11.9577H19.25C19.5263 11.9577 19.7912 11.8479 19.9866 11.6526C20.1819 11.4572 20.2917 11.1923 20.2917 10.916V6.74935C20.2917 6.47308 20.1819 6.20813 19.9866 6.01278C19.7912 5.81743 19.5263 5.70768 19.25 5.70768H15.0833C14.8071 5.70768 14.5421 5.81743 14.3468 6.01278C14.1514 6.20813 14.0417 6.47308 14.0417 6.74935V10.916C14.0417 11.1923 14.1514 11.4572 14.3468 11.6526C14.5421 11.8479 14.8071 11.9577 15.0833 11.9577ZM16.125 7.79102H18.2083V9.87435H16.125V7.79102ZM10.9167 14.041H6.75C6.47373 14.041 6.20878 14.1508 6.01343 14.3461C5.81808 14.5415 5.70833 14.8064 5.70833 15.0827V19.2493C5.70833 19.5256 5.81808 19.7906 6.01343 19.9859C6.20878 20.1813 6.47373 20.291 6.75 20.291H10.9167C11.1929 20.291 11.4579 20.1813 11.6532 19.9859C11.8486 19.7906 11.9583 19.5256 11.9583 19.2493V15.0827C11.9583 14.8064 11.8486 14.5415 11.6532 14.3461C11.4579 14.1508 11.1929 14.041 10.9167 14.041ZM9.875 18.2077H7.79166V16.1243H9.875V18.2077ZM15.0833 17.166C15.3596 17.166 15.6246 17.0563 15.8199 16.8609C16.0153 16.6656 16.125 16.4006 16.125 16.1243C16.4013 16.1243 16.6662 16.0146 16.8616 15.8193C17.0569 15.6239 17.1667 15.359 17.1667 15.0827C17.1667 14.8064 17.0569 14.5415 16.8616 14.3461C16.6662 14.1508 16.4013 14.041 16.125 14.041H15.0833C14.8071 14.041 14.5421 14.1508 14.3468 14.3461C14.1514 14.5415 14.0417 14.8064 14.0417 15.0827V16.1243C14.0417 16.4006 14.1514 16.6656 14.3468 16.8609C14.5421 17.0563 14.8071 17.166 15.0833 17.166ZM19.25 14.041C18.9737 14.041 18.7088 14.1508 18.5134 14.3461C18.3181 14.5415 18.2083 14.8064 18.2083 15.0827V18.2077C17.9321 18.2077 17.6671 18.3174 17.4718 18.5128C17.2764 18.7081 17.1667 18.9731 17.1667 19.2493C17.1667 19.5256 17.2764 19.7906 17.4718 19.9859C17.6671 20.1813 17.9321 20.291 18.2083 20.291H19.25C19.5263 20.291 19.7912 20.1813 19.9866 19.9859C20.1819 19.7906 20.2917 19.5256 20.2917 19.2493V15.0827C20.2917 14.8064 20.1819 14.5415 19.9866 14.3461C19.7912 14.1508 19.5263 14.041 19.25 14.041ZM15.0833 18.2077C14.8773 18.2077 14.6759 18.2688 14.5046 18.3832C14.3333 18.4977 14.1998 18.6604 14.121 18.8507C14.0421 19.0411 14.0215 19.2505 14.0617 19.4526C14.1019 19.6546 14.2011 19.8402 14.3468 19.9859C14.4924 20.1316 14.678 20.2308 14.8801 20.271C15.0822 20.3112 15.2916 20.2906 15.482 20.2117C15.6723 20.1329 15.835 19.9994 15.9494 19.8281C16.0639 19.6568 16.125 19.4554 16.125 19.2493C16.125 18.9731 16.0153 18.7081 15.8199 18.5128C15.6246 18.3174 15.3596 18.2077 15.0833 18.2077Z" fill="#22C55E"/>
</g>
</svg>
